<svg width="28" height="33" viewBox="0 0 28 33" fill="none" xmlns="http://www.w3.org/2000/svg">
<path d="M26.4516 7.22448L15.7245 0.499701C15.1935 0.166567 14.5925 0 13.9944 0C13.3935 0 12.7926 0.166567 12.2615 0.499701L1.54841 7.22448C0.584149 7.82864 0 8.89298 0 10.0392V27.0234C0 28.8528 1.47015 30.3378 3.28129 30.3378H8.75384V31.3428C8.75384 32.2575 9.48892 33 10.3945 33H17.6083C18.5139 33 19.249 32.2575 19.249 31.3428V30.3378H24.7187C26.5298 30.3378 28 28.8528 28 27.0234V10.0392C28 8.89298 27.4131 7.82864 26.4488 7.22448H26.4516ZM16.7894 30.5128H11.2162V24.1578C11.2162 22.6051 12.4656 21.3431 14.0028 21.3431C15.54 21.3431 16.7894 22.6051 16.7894 24.1578V30.5128ZM25.5404 27.0234C25.5404 27.4807 25.1715 27.8534 24.7187 27.8534H19.249V24.1607C19.249 21.233 16.8984 18.8588 14 18.8588C11.1016 18.8588 8.75105 21.233 8.75105 24.1607V27.8534H3.28129C2.82851 27.8534 2.45957 27.4807 2.45957 27.0234V10.0392C2.45957 9.75122 2.60491 9.48866 2.84807 9.33621L13.5612 2.61143C13.6926 2.52956 13.8407 2.48721 13.9944 2.48721C14.1481 2.48721 14.2963 2.52956 14.4276 2.61143L25.1547 9.33621C25.3979 9.48866 25.5432 9.75122 25.5432 10.0392V27.0234H25.5404Z" fill="url(#paint0_linear_762_4390)"/>
<defs>
<linearGradient id="paint0_linear_762_4390" x1="22.5" y1="3.5" x2="2.28344e-07" y2="30" gradientUnits="userSpaceOnUse">
<stop stop-color="#B0D26C"/>
<stop offset="1" stop-color="#4B6709"/>
</linearGradient>
</defs>
</svg>
